# xmcd
# 
# Track frame offsets:
#     150
#     18894
#     46808
#     64108
#     82479
#     100734
#     117438
#     140756
#     162207
#     195855
#     213581
#     237263
# 
# Disc length: 3361
# 
# Revision: 1
# Processed by: cddbd v1.5.2PL0 Copyright (c) Steve Scherf et al.
# Submitted via: fre:ac v1.1beta1pre4
# 
DISCID=a30d1f0c
DTITLE=Freddy and Francine - The Forest and the Sea
DYEAR=2010
DGENRE=Country
TTITLE0=Baby, You're Not Well
TTITLE1=The Telegram
TTITLE2=Lightning
TTITLE3=Werewolf Radio
TTITLE4=Mama
TTITLE5=Company
TTITLE6=Funny Little Things
TTITLE7=You Are Not My Maker
TTITLE8=Like In The Movies
TTITLE9=Future of My Farm
TTITLE10=Anna
TTITLE11=I Don't Wanna Go
EXTD=
EXTT0=
EXTT1=
EXTT2=
EXTT3=
EXTT4=
EXTT5=
EXTT6=
EXTT7=
EXTT8=
EXTT9=
EXTT10=
EXTT11=
PLAYORDER=
